# xmcd
#
# Track frame offsets:
#	150
#	12463
#	24108
#	35124
#	54904
#	66882
#	86986
#	96443
#	110056
#	124419
#	137547
#	149641
#	160938
#	174080
#	184755
#	195464
#
# Disc length: 2768
#
# Revision: 1
# Processed by: cddbd v1.5.1PL0 Copyright (c) Steve Scherf et al.
# Submitted via: audiograbber 1.81.03
# Normalized: r0:DSETVAR1
#
DISCID=e30ace10
DTITLE=Various Artist - My Country (LP)
DYEAR=1900
DGENRE=
TTITLE0=Nat Stuckey - Take Me Home, Country Roads
TTITLE1=Johnny Cash - Ring Of Fire
TTITLE2=Roger Miller - King Of The Road
TTITLE3=Marty Robbins - El Paso
TTITLE4=Guy Mitchell - Heartaches By The Number
TTITLE5=Lee Marvin - Wandrin' Star
TTITLE6=Dave Dudley - Rollin' On Your Track
TTITLE7=Hoyr Axton - Della And The Dealer
TTITLE8=Glen Campbell - Rhinestone Cowboy
TTITLE9=Hank Williams - Jambalaya
TTITLE10=Frankie Lane - High Noon
TTITLE11=Don Gibson - Oh, Lonesome Me
TTITLE12=Kenny Rogers and The First Edition - Ruby Don't Take Your Love To Town
TTITLE13=Leroy Van Dyke - Walk On By
TTITLE14=Jim Reeves - He'll Have To Go
TTITLE15=Don Williams - Some Broken Hearts Never Mend
EXTD=
EXTT0=
EXTT1=
EXTT2=
EXTT3=
EXTT4=
EXTT5=
EXTT6=
EXTT7=
EXTT8=
EXTT9=
EXTT10=
EXTT11=
EXTT12=
EXTT13=
EXTT14=
EXTT15=
PLAYORDER=
